<?xml version="1.0" standalone="no"?>
<!DOCTYPE svg PUBLIC "-//W3C//DTD SVG 20010904//EN"
 "http://www.w3.org/TR/2001/REC-SVG-20010904/DTD/svg10.dtd">
<svg version="1.0" xmlns="http://www.w3.org/2000/svg"
 width="300.000000pt" height="300.000000pt" viewBox="0 0 300.000000 300.000000"
 preserveAspectRatio="xMidYMid meet">
<metadata>
Created by potrace 1.10, written by Peter Selinger 2001-2011
</metadata>
<g transform="translate(0.000000,300.000000) scale(0.100000,-0.100000)"
fill="#000000" stroke="none">
<path d="M1427 2510 c-190 -48 -294 -273 -207 -447 94 -188 301 -246 472 -133
207 137 186 454 -36 556 -62 28 -167 39 -229 24z m143 -31 c96 -20 159 -68
203 -152 32 -61 31 -194 -2 -257 -53 -101 -156 -163 -263 -159 -93 3 -142 25
-202 90 -90 97 -107 209 -50 326 34 71 114 136 189 154 45 10 69 10 125 -2z"/>
<path d="M1139 1712 c-33 -21 -77 -74 -174 -208 -71 -98 -133 -182 -139 -186
-5 -3 -50 -9 -100 -13 -50 -4 -105 -13 -123 -20 -83 -34 -87 -157 -7 -193 49
-23 299 -1 347 31 25 16 150 177 176 225 6 12 15 22 19 22 4 0 6 -75 4 -167
-2 -92 -1 -177 2 -188 4 -15 32 -32 103 -62 151 -64 262 -103 292 -103 24 0
228 82 311 125 l30 15 2 194 3 195 89 -120 c51 -69 103 -127 120 -136 17 -9
74 -22 126 -29 175 -24 228 -16 256 37 30 60 6 131 -53 156 -20 8 -76 17 -126
20 l-89 6 -107 145 c-165 225 -175 237 -225 260 -44 21 -59 22 -369 22 l-323
0 -45 -28z m726 -28 c40 -20 98 -90 237 -283 76 -106 91 -119 153 -125 68 -8
138 -15 147 -15 4 -1 16 -11 28 -23 28 -30 26 -74 -5 -102 -27 -25 -61 -26
-223 -5 -95 13 -102 18 -201 148 -130 170 -149 157 -152 -103 0 -113 -4 -158
-14 -166 -29 -24 -263 -121 -295 -122 -33 -2 -209 62 -317 115 l-43 21 0 90
c-2 256 -12 297 -65 262 -14 -9 -56 -58 -94 -109 -37 -51 -80 -100 -94 -110
-33 -21 -131 -37 -234 -37 -76 0 -83 2 -102 26 -25 31 -19 70 13 96 19 16 46
21 161 31 63 6 97 30 150 107 85 122 188 254 219 283 17 15 45 31 61 36 17 5
165 9 330 8 281 -2 303 -4 340 -23z"/>
<path d="M872 949 c-137 -68 -131 -250 10 -317 38 -18 200 -66 267 -78 13 -3
50 -11 82 -18 l58 -14 -6 62 c-4 51 -2 69 15 103 22 43 68 87 102 98 11 3 20
9 20 13 0 4 -35 19 -78 34 -42 14 -120 43 -172 63 -128 49 -208 75 -234 75
-11 0 -40 -10 -64 -21z m148 -34 c25 -9 54 -20 65 -25 11 -5 45 -18 75 -28
126 -44 155 -56 162 -65 3 -6 -7 -26 -22 -46 -32 -39 -60 -109 -60 -147 0 -29
-19 -31 -117 -9 -160 37 -231 64 -273 105 -35 34 -40 45 -40 83 0 51 17 89 51
115 46 36 89 40 159 17z"/>
<path d="M1955 924 c-60 -25 -210 -86 -332 -135 -122 -50 -229 -99 -238 -109
-25 -28 -31 -104 -11 -135 30 -45 70 -58 160 -51 209 17 490 79 601 132 151
71 163 261 21 325 -59 27 -78 24 -201 -27z m192 -11 c67 -31 94 -120 56 -185
-10 -16 -39 -42 -65 -58 -61 -38 -258 -95 -398 -116 -19 -3 -59 -9 -89 -14
-30 -6 -90 -10 -132 -10 -68 0 -81 3 -99 22 -27 30 -26 79 3 106 13 12 61 37
108 56 82 33 284 115 444 182 91 38 123 41 172 17z"/>
</g>
</svg>
