<?xml version="1.0" standalone="no"?>
<!DOCTYPE svg PUBLIC "-//W3C//DTD SVG 20010904//EN"
 "http://www.w3.org/TR/2001/REC-SVG-20010904/DTD/svg10.dtd">
<svg version="1.0" xmlns="http://www.w3.org/2000/svg"
 width="300.000000pt" height="300.000000pt" viewBox="0 0 300.000000 300.000000"
 preserveAspectRatio="xMidYMid meet">
<metadata>
Created by potrace 1.10, written by Peter Selinger 2001-2011
</metadata>
<g transform="translate(0.000000,300.000000) scale(0.100000,-0.100000)"
fill="#000000" stroke="none">
<path d="M1223 2590 c-203 -41 -409 -149 -565 -298 -83 -79 -178 -211 -222
-307 -33 -72 -82 -217 -90 -271 -15 -90 -18 -307 -7 -397 52 -391 321 -736
691 -885 138 -56 246 -75 420 -75 140 0 166 3 273 31 312 81 553 276 712 573
82 156 95 236 45 284 -25 24 -39 29 -79 29 -58 0 -94 -21 -112 -66 -24 -58
-101 -202 -132 -247 -49 -71 -169 -185 -249 -234 -149 -93 -334 -137 -522
-123 -121 8 -148 13 -236 43 -253 86 -457 298 -544 564 -103 319 -12 691 225
915 169 159 365 234 606 234 235 -1 419 -71 578 -222 74 -70 185 -212 185
-236 0 -5 -44 8 -97 29 -127 50 -153 55 -192 35 -80 -42 -91 -160 -19 -205 11
-7 77 -33 147 -58 69 -25 169 -61 221 -80 127 -46 140 -50 178 -48 34 2 71 30
90 68 42 85 194 434 198 457 12 60 -46 120 -116 120 -56 0 -98 -43 -143 -145
l-36 -79 -18 33 c-39 71 -163 229 -229 291 -143 135 -297 214 -512 265 -69 16
-373 19 -449 5z m417 -36 c97 -18 206 -50 250 -75 8 -4 35 -18 60 -31 115 -57
251 -177 346 -305 30 -40 54 -76 54 -79 0 -3 11 -19 25 -36 14 -16 25 -26 25
-23 0 4 6 2 14 -4 25 -21 59 6 85 66 37 84 65 113 109 113 43 0 55 -7 71 -37
20 -38 16 -51 -85 -269 -19 -41 -34 -77 -34 -80 0 -14 -72 -153 -85 -164 -38
-31 -82 -23 -299 60 -73 27 -136 50 -140 50 -5 0 -22 6 -39 14 -18 7 -46 19
-64 26 -52 20 -66 78 -30 131 30 44 47 44 170 -5 86 -33 102 -37 122 -26 22
12 31 50 12 50 -4 0 -5 4 -2 10 8 13 -10 44 -70 120 -64 80 -110 123 -195 180
-36 25 -67 47 -70 50 -9 10 -91 43 -105 43 -8 0 -15 4 -15 8 0 10 -90 36 -155
45 -62 9 -237 8 -313 0 -54 -7 -170 -38 -202 -55 -115 -61 -162 -89 -198 -118
-74 -61 -153 -146 -204 -222 -53 -77 -131 -267 -126 -304 1 -12 -1 -28 -6 -35
-27 -44 -11 -403 17 -385 6 3 7 1 3 -6 -18 -28 60 -205 138 -314 151 -211 356
-336 616 -376 68 -10 194 -8 277 5 26 5 51 7 56 6 4 -1 7 2 7 7 0 5 8 8 17 7
9 -2 46 8 83 21 36 13 69 25 75 26 5 1 14 6 20 10 5 4 45 31 87 59 69 44 161
127 209 185 39 48 108 165 139 237 39 87 58 106 111 106 97 0 94 -105 -8 -285
-66 -117 -79 -134 -153 -216 -164 -180 -384 -302 -605 -335 -56 -8 -220 -21
-230 -18 -5 1 -37 5 -69 8 -80 8 -219 36 -231 47 -5 5 -15 9 -23 9 -14 0 -118
45 -181 80 -142 76 -363 315 -430 465 -7 17 -20 42 -27 56 -8 15 -15 35 -17
45 -2 11 -9 31 -15 46 -23 57 -44 189 -48 308 -6 177 13 294 74 455 68 181
222 369 402 491 113 77 304 151 435 168 70 9 296 3 365 -10z"/>
</g>
</svg>
