<?xml version="1.0" standalone="no"?>
<!DOCTYPE svg PUBLIC "-//W3C//DTD SVG 20010904//EN"
 "http://www.w3.org/TR/2001/REC-SVG-20010904/DTD/svg10.dtd">
<svg version="1.0" xmlns="http://www.w3.org/2000/svg"
 width="300.000000pt" height="300.000000pt" viewBox="0 0 300.000000 300.000000"
 preserveAspectRatio="xMidYMid meet">
<metadata>
Created by potrace 1.10, written by Peter Selinger 2001-2011
</metadata>
<g transform="translate(0.000000,300.000000) scale(0.100000,-0.100000)"
fill="#000000" stroke="none">
<path d="M1223 2224 l-213 -216 -214 1 c-235 2 -267 -4 -286 -55 -6 -15 -10
-193 -10 -419 l0 -394 24 -28 24 -28 225 -3 224 -3 189 -191 c104 -105 207
-203 228 -219 46 -34 88 -37 116 -9 20 20 20 33 20 880 l0 859 -22 21 c-13 12
-35 20 -57 20 -34 0 -50 -14 -248 -216z m287 157 c7 -13 10 -295 10 -843 0
-674 -2 -828 -13 -843 -28 -37 -64 -11 -273 197 -111 110 -208 204 -215 209
-8 5 -102 9 -210 9 -214 0 -251 7 -268 48 -7 18 -10 154 -8 400 l2 374 24 19
c21 17 41 19 180 19 290 1 270 -2 330 55 29 28 126 123 215 213 128 128 168
162 189 162 16 0 30 -8 37 -19z"/>
<path d="M2110 2420 c-34 -34 -26 -73 27 -132 197 -222 295 -472 295 -758 1
-272 -94 -517 -281 -723 -71 -78 -78 -112 -35 -152 31 -28 53 -31 92 -11 56
29 180 188 245 314 170 327 191 679 64 1027 -46 126 -184 335 -276 418 -48 43
-98 50 -131 17z m124 -63 c74 -77 93 -102 148 -187 93 -146 154 -315 174 -480
7 -58 7 -268 -1 -300 -3 -14 -10 -54 -15 -89 -34 -204 -158 -443 -307 -589
-45 -43 -70 -51 -91 -30 -22 22 -12 53 31 98 24 25 56 63 72 85 17 22 32 42
36 45 22 19 123 230 134 280 2 8 10 37 19 64 8 27 21 100 27 161 12 108 7 216
-17 355 -11 62 -65 211 -103 285 -41 77 -135 211 -182 259 -30 29 -38 71 -16
79 30 13 52 4 91 -36z"/>
<path d="M1909 2170 c-9 -5 -22 -22 -28 -38 -16 -37 -5 -59 64 -142 60 -72
102 -150 135 -255 18 -57 22 -94 22 -200 0 -115 -3 -139 -26 -210 -37 -110
-88 -202 -147 -269 -42 -46 -51 -63 -51 -93 0 -45 29 -73 76 -73 49 0 136 96
208 230 180 333 129 737 -125 1008 -51 54 -88 66 -128 42z m81 -43 c40 -32
117 -141 155 -218 79 -161 106 -331 79 -502 -14 -88 -49 -201 -69 -221 -8 -7
-12 -16 -9 -18 2 -3 -11 -29 -31 -58 -19 -28 -35 -55 -35 -59 0 -3 -11 -19
-25 -36 -56 -67 -79 -85 -107 -85 -25 0 -28 4 -28 30 0 22 17 53 58 108 88
115 109 160 142 295 37 150 20 333 -43 482 -21 50 -93 163 -123 192 -8 9 -22
26 -30 39 -30 44 23 86 66 51z"/>
<path d="M1700 1890 c-29 -29 -25 -71 14 -129 91 -135 92 -307 2 -439 -42 -61
-50 -86 -35 -114 26 -48 75 -62 116 -33 31 22 87 111 112 180 31 83 38 218 17
309 -18 77 -65 173 -107 217 -33 36 -88 40 -119 9z m120 -73 c54 -71 84 -172
84 -282 0 -110 -21 -182 -79 -268 -43 -64 -67 -78 -98 -54 -21 15 -15 34 34
117 41 67 62 162 55 238 -7 69 -46 184 -71 208 -8 9 -18 26 -21 40 -18 72 43
73 96 1z"/>
</g>
</svg>
